<svg height='100px' width='100px'  fill="#FF8400" xmlns="http://www.w3.org/2000/svg" xmlns:xlink="http://www.w3.org/1999/xlink" version="1.1" x="0px" y="0px" viewBox="0 0 374.521 424.258" style="enable-background:new 0 0 374.521 424.258;" xml:space="preserve"><g><path d="M244.216,3.258c0-1.839,1.489-3,3.329-3h11.099c1.839,0,3.328,1.161,3.328,3s-1.489,3-3.328,3h-11.099   C245.705,6.258,244.216,5.097,244.216,3.258z M225.349,6.258h11.098c1.84,0,3.33-1.161,3.33-3s-1.49-3-3.33-3h-11.098   c-1.839,0-3.329,1.161-3.329,3S223.51,6.258,225.349,6.258z M269.741,6.258h11.098c1.839,0,3.329-1.161,3.329-3s-1.49-3-3.329-3   h-11.098c-1.84,0-3.33,1.161-3.33,3S267.901,6.258,269.741,6.258z M203.153,6.258h11.098c1.839,0,3.329-1.161,3.329-3   s-1.49-3-3.329-3h-11.098c-1.839,0-3.33,1.161-3.33,3S201.314,6.258,203.153,6.258z M295.48,238.559l-8.517,7.117   c-1.41,1.178-1.598,3.277-0.419,4.689c0.658,0.787,1.604,1.194,2.557,1.194c0.753,0,1.51-0.254,2.134-0.774l8.516-7.116   c1.411-1.179,1.599-3.278,0.42-4.69C298.992,237.568,296.893,237.38,295.48,238.559z M92.173,6.258h11.099   c1.839,0,3.329-1.161,3.329-3s-1.49-3-3.329-3H92.173c-1.839,0-3.329,1.161-3.329,3S90.334,6.258,92.173,6.258z M291.937,6.258   h11.098c1.84,0,3.33-1.161,3.33-3s-1.49-3-3.33-3h-11.098c-1.839,0-3.329,1.161-3.329,3S290.098,6.258,291.937,6.258z    M114.369,6.258h11.098c1.84,0,3.329-1.161,3.329-3s-1.489-3-3.329-3h-11.098c-1.84,0-3.329,1.161-3.329,3   S112.529,6.258,114.369,6.258z M158.761,6.258h11.098c1.84,0,3.33-1.161,3.33-3s-1.49-3-3.33-3h-11.098   c-1.839,0-3.329,1.161-3.329,3S156.922,6.258,158.761,6.258z M136.565,6.258h11.098c1.84,0,3.329-1.161,3.329-3s-1.489-3-3.329-3   h-11.098c-1.84,0-3.33,1.161-3.33,3S134.726,6.258,136.565,6.258z M180.957,6.258h11.098c1.84,0,3.329-1.161,3.329-3   s-1.489-3-3.329-3h-11.098c-1.84,0-3.329,1.161-3.329,3S179.117,6.258,180.957,6.258z M332,144.605c0-1.838-1.66-3.329-3.5-3.329   s-3.5,1.491-3.5,3.329v11.098c0,1.838,1.66,3.33,3.5,3.33s3.5-1.491,3.5-3.33V144.605z M332,55.822c0-1.838-1.66-3.33-3.5-3.33   s-3.5,1.491-3.5,3.33V66.92c0,1.839,1.66,3.329,3.5,3.329s3.5-1.49,3.5-3.329V55.822z M312.514,224.328l-8.517,7.115   c-1.411,1.18-1.599,3.279-0.419,4.689c0.658,0.789,1.604,1.195,2.557,1.195c0.752,0,1.51-0.254,2.133-0.774l8.517-7.116   c1.411-1.18,1.598-3.279,0.419-4.69C316.026,223.338,313.926,223.148,312.514,224.328z M328.5,96.884c-1.84,0-3.5,1.491-3.5,3.33   v11.098c0,1.839,1.66,3.33,3.5,3.33s3.5-1.491,3.5-3.33v-11.098C332,98.375,330.34,96.884,328.5,96.884z M332,78.018   c0-1.839-1.66-3.329-3.5-3.329s-3.5,1.49-3.5,3.329v11.098c0,1.838,1.66,3.33,3.5,3.33s3.5-1.491,3.5-3.33V78.018z M325,11.43   v11.098c0,1.838,1.66,3.33,3.5,3.33s3.5-1.491,3.5-3.33V11.43c0-1.839-1.66-3.329-3.5-3.329S325,9.591,325,11.43z M332,33.626   c0-1.839-1.66-3.33-3.5-3.33s-3.5,1.491-3.5,3.33v11.098c0,1.839,1.66,3.33,3.5,3.33s3.5-1.491,3.5-3.33V33.626z M314.133,6.258   h11.098c1.84,0,3.329-1.161,3.329-3s-1.489-3-3.329-3h-11.098c-1.84,0-3.329,1.161-3.329,3S312.293,6.258,314.133,6.258z    M227.351,295.486l-8.517,7.116c-1.41,1.18-1.598,3.279-0.419,4.69c0.657,0.787,1.604,1.193,2.557,1.193   c0.751,0,1.509-0.254,2.132-0.773l8.518-7.116c1.411-1.179,1.598-3.279,0.419-4.69   C230.862,294.496,228.764,294.307,227.351,295.486z M328.5,185.668c-1.84,0-3.5,1.491-3.5,3.33v11.098c0,1.839,1.66,3.33,3.5,3.33   s3.5-1.491,3.5-3.33v-11.098C332,187.159,330.34,185.668,328.5,185.668z M332,166.801c0-1.838-1.66-3.329-3.5-3.329   s-3.5,1.491-3.5,3.329v11.098c0,1.839,1.66,3.33,3.5,3.33s3.5-1.491,3.5-3.33V166.801z M44.5,25.868c1.84,0,3.5-1.491,3.5-3.33   V11.441c0-1.839-1.66-3.33-3.5-3.33S41,9.602,41,11.441v11.098C41,24.377,42.66,25.868,44.5,25.868z M272.07,265.791   c0.752,0,1.51-0.254,2.133-0.773l8.517-7.116c1.41-1.179,1.598-3.278,0.419-4.69c-1.177-1.41-3.277-1.6-4.689-0.42l-8.517,7.115   c-1.411,1.18-1.599,3.279-0.42,4.69C270.172,265.385,271.118,265.791,272.07,265.791z M47.781,6.258h11.098   c1.84,0,3.33-1.161,3.33-3s-1.49-3-3.33-3H47.781c-1.84,0-3.329,1.161-3.329,3S45.941,6.258,47.781,6.258z M77.181,239.082   c-1.395-1.201-3.496-1.047-4.696,0.347c-1.201,1.392-1.046,3.495,0.346,4.695l8.403,7.249c0.63,0.543,1.403,0.809,2.174,0.809   c0.935,0,1.864-0.391,2.522-1.154c1.2-1.393,1.045-3.495-0.346-4.695L77.181,239.082z M69.978,6.258h11.098   c1.839,0,3.329-1.161,3.329-3s-1.49-3-3.329-3H69.978c-1.839,0-3.33,1.161-3.33,3S68.139,6.258,69.978,6.258z M44.5,48.064   c1.84,0,3.5-1.491,3.5-3.33V33.637c0-1.839-1.66-3.33-3.5-3.33s-3.5,1.491-3.5,3.33v11.098C41,46.573,42.66,48.064,44.5,48.064z    M55.676,224.932c-1.2,1.393-1.045,3.494,0.348,4.695l8.402,7.249c0.63,0.542,1.404,0.809,2.175,0.809   c0.935,0,1.864-0.392,2.521-1.155c1.202-1.393,1.047-3.494-0.344-4.695l-8.404-7.248C58.98,223.385,56.877,223.538,55.676,224.932z    M44.5,114.652c1.84,0,3.5-1.491,3.5-3.33v-11.098c0-1.839-1.66-3.33-3.5-3.33s-3.5,1.491-3.5,3.33v11.098   C41,113.161,42.66,114.652,44.5,114.652z M48,166.813c0-1.839-1.66-3.33-3.5-3.33s-3.5,1.491-3.5,3.33v11.098   c0,1.839,1.66,3.33,3.5,3.33s3.5-1.491,3.5-3.33V166.813z M44.5,92.456c1.84,0,3.5-1.491,3.5-3.33V78.028   c0-1.838-1.66-3.329-3.5-3.329S41,76.19,41,78.028v11.098C41,90.965,42.66,92.456,44.5,92.456z M44.5,70.26   c1.84,0,3.5-1.49,3.5-3.329V55.833c0-1.838-1.66-3.33-3.5-3.33s-3.5,1.491-3.5,3.33v11.098C41,68.77,42.66,70.26,44.5,70.26z    M48,144.616c0-1.838-1.66-3.329-3.5-3.329s-3.5,1.491-3.5,3.329v11.099c0,1.838,1.66,3.329,3.5,3.329s3.5-1.491,3.5-3.329V144.616   z M156.522,311.916c-1.201,1.393-1.047,3.494,0.347,4.695l8.403,7.248c0.628,0.543,1.402,0.809,2.173,0.809   c0.935,0,1.865-0.393,2.522-1.155c1.2-1.394,1.046-3.495-0.348-4.695l-8.403-7.249   C159.826,310.369,157.722,310.521,156.522,311.916z M139.715,297.418c-1.201,1.393-1.046,3.494,0.347,4.695l8.403,7.25   c0.629,0.541,1.403,0.807,2.173,0.807c0.935,0,1.864-0.391,2.522-1.154c1.201-1.393,1.046-3.494-0.347-4.695l-8.403-7.25   C143.018,295.871,140.916,296.025,139.715,297.418z M193.285,323.95c0,0-8.824,7.399-8.953,7.556l-6.308-5.439   c-1.39-1.201-3.494-1.047-4.695,0.346c-1.2,1.393-1.046,3.495,0.347,4.696l8.404,7.248c0.629,0.542,1.402,0.808,2.172,0.808   c0.935,0,1.865-0.391,2.522-1.154c0.288-0.332,10.78-8.949,10.78-8.949c1.412-1.179,1.6-3.279,0.42-4.689   C196.798,322.96,194.697,322.771,193.285,323.95z M106.1,268.424c-1.2,1.393-1.045,3.494,0.347,4.695l8.404,7.248   c0.629,0.543,1.401,0.809,2.173,0.809c0.934,0,1.864-0.393,2.521-1.154c1.201-1.394,1.046-3.496-0.347-4.697l-8.403-7.248   C109.404,266.875,107.3,267.03,106.1,268.424z M255.037,280.023c0.753,0,1.51-0.254,2.134-0.774l8.516-7.116   c1.411-1.18,1.599-3.279,0.42-4.689c-1.178-1.41-3.278-1.6-4.69-0.42l-8.517,7.115c-1.41,1.18-1.598,3.279-0.419,4.691   C253.139,279.617,254.084,280.023,255.037,280.023z M93.986,253.58c-1.391-1.201-3.495-1.047-4.694,0.346   c-1.201,1.393-1.046,3.496,0.347,4.695l8.404,7.25c0.629,0.541,1.402,0.808,2.174,0.808c0.934,0,1.863-0.392,2.521-1.155   c1.201-1.393,1.046-3.496-0.347-4.695L93.986,253.58z M210.317,309.719l-8.516,7.115c-1.411,1.18-1.599,3.279-0.42,4.689   c0.659,0.789,1.604,1.195,2.557,1.195c0.753,0,1.511-0.254,2.134-0.774l8.516-7.115c1.411-1.179,1.599-3.278,0.42-4.689   C213.831,308.729,211.73,308.539,210.317,309.719z M44.5,185.679c-1.84,0-3.5,1.491-3.5,3.33v11.098c0,1.838,1.66,3.329,3.5,3.329   s3.5-1.491,3.5-3.329v-11.098C48,187.17,46.34,185.679,44.5,185.679z M374,169.474c0-0.778-0.24-1.533-0.736-2.131l-39.178-47.07   c-1.016-1.216-5.115-1.192-5.646-1.192c-1.838,0-3.439,1.491-3.439,3.33v11.098c0,1.838,1.66,3.329,3.5,3.329s3.5-1.491,3.5-3.329   v-5.479l36,42.649v2.248l-37.037,35.705c-0.576-0.472-1.564-0.767-2.367-0.767c-1.838,0-3.596,1.491-3.596,3.33v2.504l-4.088,3.514   c-1.412,1.18-1.539,3.279-0.361,4.69c0.656,0.788,1.634,1.194,2.586,1.194c0.752,0,1.82-0.254,2.445-0.773L368,182.211v230.047   L248.281,286.924l0.52-0.559c1.412-1.18,1.525-3.279,0.346-4.69c-1.178-1.41-3.313-1.599-4.725-0.42l-8.537,7.116   c-1.41,1.18-1.607,3.279-0.428,4.689c0.658,0.789,1.6,1.195,2.553,1.195c0.752,0,1.506-0.255,2.129-0.775l2.727-1.96   l120.458,126.737H9.653l120.699-121.019c0.647-0.646,1.306-2.216,1.306-2.216c0.628,0.543,1.402,0.729,2.173,0.729   c0.935,0,1.863-0.432,2.522-1.193c1.2-1.395,1.045-3.516-0.348-4.717l-8.404-7.257c-1.39-1.201-3.494-1.052-4.694,0.341   c-1.201,1.393-1.046,3.492,0.347,4.693l4.254,3.667c-0.682,0.103-1.701,0.403-2.226,0.929L6,411.135V180.096l41.257,42.283   c0.629,0.543,1.585,0.809,2.355,0.809c0.934,0,1.955-0.393,2.613-1.155c1.201-1.392,1.198-3.495-0.193-4.695L48,213.729v-2.525   c0-1.838-1.596-3.329-3.436-3.329c-0.752,0-1.49,0.258-2.048,0.678L8.871,173.002C8.204,172.289,7,171.946,6,171.959v-5.703   L41,128.8v4.719c0,1.839,1.66,3.329,3.5,3.329s3.5-1.49,3.5-3.329V122.42c0-1.838-1.596-3.33-3.436-3.33   c-0.332,0-0.697,0.063-1.001,0.153c-1.199-0.39-2.597-0.083-3.507,0.907L0.924,162.708C0.36,163.323,0,164.126,0,164.96v255.991   c0,1.838,1.556,3.307,3.395,3.307h367.344c0.061,0,0.117-0.005,0.176-0.007c0.06,0.002,0.119,0.022,0.179,0.022   c0.826,0,1.62-0.301,2.265-0.916c1.076-1.029,1.643-2.599,0.643-3.869V169.474z M85.631,88.177   c0.814,1.333,10.627,16.551,36.543,16.551c7.634,0,15.994-1.463,24.852-4.103c2.505-0.421,22.187-4.071,38.021-16.897   c5.212,3.987,18.81,14.639,33.167,17.162c10.182,1.788,19.489,4.367,27.661,4.367c0,0,0.001,0,0.003,0   c20.051,0,33.396-8.22,39.662-18.794c5.062-8.54,6.718-16.313,4.923-23.103c-1.993-7.541-7.769-11.789-11.032-13.654   c-2.398-1.37-4.896-2.062-7.426-2.062c-4.502,0-8.93,2.132-13.538,6.511c-1.237,1.176-1.385,3.102-0.341,4.454   c1.045,1.352,2.942,1.7,4.393,0.798c0.975-0.606,4.368-2.322,7.076-2.322c1.436,0,2.063,0.509,2.409,0.869   c0.649,0.678,1.712,2.597,1.516,7.453c-0.16,3.958-1.731,4.849-4.392,4.849c0,0-0.001,0-0.002,0   c-3.801,0-11.508-2.134-26.635-11.728c-7.229-4.582-21.565-13.145-36.359-13.145c-8.155,0-15.313,3.088-21.321,7.708   c-3.774-3.018-11.85-8.18-22.79-7.808C150.371,45.68,132.78,56.404,123.33,62.18c-2.285,1.396-4.257,2.548-5.059,2.928   c-0.614,0.291-1.386,0.554-2.363,1.09c-3.395,1.862-9.711,5.06-14.033,5.06c-0.01,0-0.019,0-0.03,0   c-1.481,0-3.922,0.23-3.999-5.911c-0.045-3.542,0.569-5.898,1.733-7.076c0.372-0.377,1.037-0.864,2.499-0.864   c2.33,0,5.055,1.295,5.899,1.787c0.54,0.32,1.152,0.453,1.732,0.467c1.831-0.009,3.313-1.494,3.313-3.328   c0-1.046-0.482-1.98-1.239-2.591c-1.209-1.151-5.838-5.104-12.322-5.104c-3.468,0-6.859,1.115-10.086,3.315   C77.711,59.904,79.332,78.389,85.631,88.177z M269.746,138.258c0-1.839-1.49-3-3.33-3h-160.92c-1.839,0-3.33,1.161-3.33,3   s1.491,3,3.33,3h160.92C268.256,141.258,269.746,140.097,269.746,138.258z M236.451,160.258c1.84,0,3.33-1.162,3.33-3   c0-1.839-1.49-3-3.33-3h-100.99c-1.839,0-3.33,1.161-3.33,3c0,1.838,1.491,3,3.33,3H236.451z M259.758,175.758   c0-1.839-1.49-3.5-3.33-3.5H115.484c-1.839,0-3.33,1.661-3.33,3.5s1.491,3.5,3.33,3.5h140.943   C258.268,179.258,259.758,177.597,259.758,175.758z"></path></g></svg>