<svg height='100px' width='100px'  fill="#FF8400" xmlns="http://www.w3.org/2000/svg" xmlns:xlink="http://www.w3.org/1999/xlink" version="1.1" x="0px" y="0px" viewBox="0 0 100 100" enable-background="new 0 0 100 100" xml:space="preserve"><g><path d="M55.286,61.397h-3.227l-1.135-3.235l2.915-1.415c0.434-0.211,0.74-0.617,0.822-1.093c0.083-0.475-0.068-0.961-0.405-1.306   c-0.036-0.037-3.632-4.108-2.763-17.353c0.054-0.827-0.572-1.541-1.399-1.595c-0.821-0.063-1.541,0.571-1.595,1.398   c-0.673,10.262,1.171,15.588,2.478,18.001l-2.567,1.247c-0.686,0.333-1.013,1.127-0.76,1.847l1.23,3.503h-4.174   c-0.829,0-1.5,0.672-1.5,1.5s0.671,1.5,1.5,1.5h10.581c0.828,0,1.5-0.672,1.5-1.5S56.114,61.397,55.286,61.397z"></path><circle cx="45.039" cy="45.563" r="1.334"></circle><circle cx="54.952" cy="45.563" r="1.334"></circle><path d="M77.81,43.388c0-3.737-2.806-6.831-6.421-7.286c-0.645-2.557-2.964-4.455-5.719-4.455c-0.564,0-1.116,0.092-1.649,0.25   c-2.062-5.764-7.562-9.907-14.026-9.907c-6.463,0-11.963,4.142-14.026,9.905c-0.531-0.156-1.079-0.248-1.641-0.248   c-2.754,0-5.074,1.898-5.719,4.455c-3.615,0.456-6.42,3.549-6.42,7.286c0,3.683,2.729,6.733,6.269,7.256   c-0.015,0.2-0.027,0.401-0.027,0.604c0,3.985,2.873,7.312,6.656,8.018v3.837c0,8.22,6.688,14.907,14.908,14.907   c8.22,0,14.907-6.688,14.907-14.907v-3.837c3.783-0.706,6.656-4.032,6.656-8.018c0-0.203-0.012-0.403-0.027-0.603   C75.077,50.126,77.81,47.075,77.81,43.388z M29.235,47.722c-2.256-0.154-4.045-2.039-4.045-4.333c0-2.395,1.949-4.344,4.344-4.344   c0.076,0,0.151,0.006,0.301,0.017c0.417,0.034,0.821-0.118,1.124-0.401c0.303-0.284,0.475-0.68,0.475-1.095   c0-0.021,0-0.044-0.001-0.066c0.025-1.576,1.314-2.851,2.896-2.851c0.312,0,0.618,0.052,0.912,0.152   c-0.013,0.093-0.019,0.186-0.03,0.279c-0.021,0.174-0.042,0.348-0.057,0.523c-0.039,0.434-0.066,0.867-0.066,1.295v6.333   c-0.011,0.002-0.022,0.006-0.033,0.008c-0.268,0.051-0.53,0.118-0.788,0.195c-0.103,0.031-0.204,0.066-0.305,0.1   c-0.166,0.057-0.329,0.118-0.489,0.185c-0.113,0.047-0.225,0.092-0.335,0.143c-0.159,0.075-0.314,0.158-0.467,0.242   c-0.195,0.107-0.383,0.222-0.568,0.344c-0.1,0.067-0.202,0.132-0.299,0.202c-0.131,0.095-0.257,0.195-0.382,0.297   c-0.084,0.069-0.166,0.141-0.247,0.213c-0.122,0.109-0.244,0.216-0.36,0.332c-0.165,0.166-0.323,0.338-0.474,0.517   c-0.086,0.103-0.164,0.211-0.245,0.318c-0.095,0.126-0.188,0.253-0.277,0.384c-0.065,0.097-0.128,0.194-0.189,0.294   c-0.128,0.208-0.247,0.422-0.355,0.643C29.263,47.674,29.247,47.697,29.235,47.722z M63.403,56.404c-0.828,0-1.5,0.672-1.5,1.5   v5.198c0,6.565-5.342,11.907-11.907,11.907c-6.566,0-11.908-5.342-11.908-11.907v-5.198c0-0.828-0.671-1.5-1.5-1.5   c-2.843,0-5.156-2.313-5.156-5.156c0-0.643,0.132-1.252,0.348-1.82c0.043-0.114,0.089-0.227,0.14-0.336   c0.09-0.193,0.192-0.38,0.304-0.559c0.046-0.074,0.088-0.151,0.137-0.223c0.355-0.509,0.796-0.951,1.307-1.303   c0.05-0.034,0.104-0.062,0.155-0.095c0.205-0.131,0.42-0.248,0.644-0.35c0.084-0.038,0.169-0.073,0.255-0.106   c0.209-0.082,0.426-0.147,0.647-0.201c0.09-0.022,0.178-0.048,0.27-0.065c0.309-0.058,0.625-0.096,0.95-0.096   c0.829,0,1.5-0.671,1.5-1.5v-7.695c0-0.841,0.096-1.705,0.287-2.568c1.179-5.334,5.938-9.339,11.621-9.339   c5.719,0,10.507,4.055,11.647,9.44c0.04,0.189,0.063,0.377,0.094,0.565c0.1,0.621,0.167,1.253,0.167,1.902v7.695   c0,0.829,0.672,1.5,1.5,1.5c0.33,0,0.652,0.038,0.965,0.098c0.076,0.014,0.149,0.037,0.223,0.054   c0.244,0.058,0.483,0.13,0.712,0.222c0.065,0.025,0.128,0.052,0.192,0.08c0.26,0.116,0.511,0.25,0.747,0.406   c0.018,0.012,0.038,0.022,0.056,0.034c0.535,0.365,0.998,0.828,1.363,1.362c0.017,0.025,0.031,0.051,0.047,0.076   c0.151,0.23,0.282,0.474,0.395,0.727c0.03,0.067,0.058,0.136,0.085,0.205c0.233,0.587,0.371,1.223,0.371,1.892   C68.559,54.091,66.246,56.404,63.403,56.404z M70.764,47.722c-0.066-0.137-0.146-0.264-0.219-0.396   c-0.042-0.076-0.082-0.153-0.126-0.228c-0.1-0.169-0.206-0.332-0.317-0.493c-0.026-0.038-0.054-0.074-0.08-0.112   c-0.386-0.539-0.833-1.024-1.331-1.449c-0.011-0.009-0.021-0.019-0.032-0.028c-0.172-0.145-0.347-0.282-0.53-0.412   c-0.008-0.005-0.016-0.01-0.023-0.016c-0.344-0.242-0.705-0.457-1.084-0.644c-0.039-0.019-0.077-0.041-0.116-0.06   c-0.149-0.07-0.301-0.133-0.454-0.194c-0.117-0.047-0.234-0.092-0.354-0.134c-0.133-0.046-0.265-0.092-0.401-0.132   c-0.201-0.059-0.406-0.108-0.613-0.152c-0.058-0.012-0.113-0.032-0.171-0.042v-6.333c0-0.481-0.034-0.967-0.082-1.453   c-0.005-0.053-0.011-0.105-0.017-0.158c-0.018-0.162-0.029-0.324-0.053-0.486c0.293-0.101,0.6-0.152,0.911-0.152   c1.582,0,2.872,1.275,2.897,2.851c-0.001,0.022-0.002,0.045-0.002,0.066c0,0.417,0.203,0.812,0.508,1.096   c0.305,0.283,0.742,0.43,1.159,0.396c0.077-0.005,0.154-0.012,0.233-0.012c2.396,0,4.344,1.949,4.344,4.344   C74.81,45.683,73.021,47.568,70.764,47.722z"></path></g></svg>