<svg height='100px' width='100px'  fill="#FF8400" xmlns="http://www.w3.org/2000/svg" viewBox="0 0 64 64" x="0px" y="0px"><title>Artboard 11</title><g><path d="M32,49a3,3,0,1,1-3-3A3.0033,3.0033,0,0,1,32,49ZM26,26a3.0033,3.0033,0,0,0-3-3,2.963,2.963,0,0,0-1.381.3525,34.3567,34.3567,0,0,0-.5931,4.8886A2.9853,2.9853,0,0,0,26,26Zm-.3441-14H38.3441L40.958,3.2871a1,1,0,0,0-.7-1.2534A33.6152,33.6152,0,0,0,23.771,2.0264a1,1,0,0,0-.729,1.2607ZM33,32a3,3,0,1,0,3,3A3.0033,3.0033,0,0,0,33,32Zm9,20a2.9884,2.9884,0,0,0-1.8322,5.3582l1.9015-1.3675a4.9515,4.9515,0,0,0,1.8736-3.2576A2.973,2.973,0,0,0,42,52Zm-5,3a4.981,4.981,0,0,0,1.4973,3.56L32.584,62.812a1.0011,1.0011,0,0,1-1.168,0L21.96,56.0132a4.9842,4.9842,0,0,1-1.96-3.97l.9324-21.5041A4.9507,4.9507,0,0,0,23,31a5,5,0,1,0-.897-9.9093c.2954-1.246.6206-2.4244.9483-3.4071A14.7831,14.7831,0,0,1,24.9169,14H39.0831a15.504,15.504,0,0,1,1.2077,2.0722,4.9866,4.9866,0,1,0,2.4555,9.5963A26.3678,26.3678,0,0,1,43,29l.929,21.3888A4.9966,4.9966,0,0,0,37,55Zm-3-6a5,5,0,1,0-5,5A5.0059,5.0059,0,0,0,34,49Zm4-14a5,5,0,1,0-5,5A5.0059,5.0059,0,0,0,38,35Zm0-14a3.0033,3.0033,0,0,0,3,3,2.9619,2.9619,0,0,0,1.4268-.3775,45.8542,45.8542,0,0,0-1.3782-5.6176C41.032,18.0046,41.0167,18,41,18A3.0033,3.0033,0,0,0,38,21Z"></path></g></svg>