<svg height='100px' width='100px'  fill="#FF8400" xmlns="http://www.w3.org/2000/svg" data-name="Livello 2" viewBox="0 0 50 50" x="0px" y="0px"><title>icone-ambiente-esp</title><polygon points="23.085 19.989 26.923 15.207 26.289 12.756 22.641 17.301 22.482 17.499 21.246 22.281 23.085 19.989" fill="none"></polygon><polygon points="23.823 12.317 23.093 15.141 24.764 13.059 25.359 12.317 23.823 12.317" fill="none"></polygon><polygon points="26.285 11.317 27.857 7.643 22.143 7.643 23.715 11.317 26.285 11.317" fill="none"></polygon><polygon points="27.235 16.415 21.072 24.096 20.636 24.639 19.398 29.421 27.869 18.865 27.235 16.415" fill="none"></polygon><polygon points="28.816 22.523 28.182 20.073 26.217 22.521 18.788 31.779 18.307 33.64 19.092 34.641 28.816 22.523" fill="none"></polygon><polygon points="30.709 29.84 30.075 27.39 21.645 37.895 22.93 39.532 30.709 29.84" fill="none"></polygon><polygon points="23.564 40.341 25 42.17 31.693 33.64 31.021 31.048 23.564 40.341" fill="none"></polygon><polygon points="29.763 26.182 29.129 23.731 19.726 35.449 21.011 37.086 29.763 26.182" fill="none"></polygon><path d="M31.74,29.832l-.946-3.658-.946-3.659h0L28.9,18.857h0L27.954,15.2l-.845-3.265L29.075,7.34a.5.5,0,0,0-.46-.7h-7.23a.5.5,0,0,0-.46.7l1.965,4.592-1.349,5.213h0L19.7,24.284h0l-1.847,7.14-.571,2.2a.5.5,0,0,0,.091.433l1.326,1.692L20.612,38.2l1.92,2.447,1.978,2.52a.5.5,0,0,0,.393.191H25.1a.5.5,0,0,0,.393-.191l7.144-9.1a.5.5,0,0,0,.091-.433ZM23.093,15.141l.73-2.824h1.536l-.6.742ZM22.482,17.5l.159-.2,3.648-4.545.634,2.451-3.838,4.782-1.839,2.292Zm5.375-9.856-1.572,3.674h-2.57L22.143,7.643Zm-7.221,17,.436-.543,6.163-7.681.634,2.45L19.4,29.421Zm-1.848,7.14,7.429-9.258,1.965-2.448.634,2.45L19.092,34.641l-.785-1Zm10.341-8.048.634,2.451-8.752,10.9-1.285-1.637Zm.946,3.659.634,2.45L22.93,39.532,21.645,37.9ZM25,42.17l-1.436-1.829,7.457-9.293.672,2.592Z"></path></svg>