<svg height='100px' width='100px'  fill="#FF8400" xmlns="http://www.w3.org/2000/svg" xmlns:xlink="http://www.w3.org/1999/xlink" version="1.1" x="0px" y="0px" viewBox="0 0 100 100" enable-background="new 0 0 100 100" xml:space="preserve"><path fill="#FF8400" d="M57.137,23.042c1.313-0.78,2.198-2.209,2.198-3.844V9.473C59.335,7.006,57.329,5,54.862,5h-9.725  c-2.466,0-4.473,2.006-4.473,4.473v9.725c0,1.635,0.885,3.064,2.198,3.844l-4.5,60.321L50,95l11.637-11.637L57.137,23.042z   M44.28,41.398l10.924-6.905l0.988,13.24l-13.037,8.749L44.28,41.398z M44.538,37.947l1.065-14.277h8.794l0.573,7.683L44.538,37.947  z M42.892,60.006l13.538-9.085l0.937,12.564L41.904,73.26L42.892,60.006z M43.444,9.473c0-0.934,0.759-1.693,1.693-1.693h9.725  c0.934,0,1.693,0.759,1.693,1.693v9.725c0,0.933-0.759,1.693-1.693,1.693h-9.725c-0.934,0-1.693-0.759-1.693-1.693V9.473z   M50,91.069l-8.771-8.771l0.417-5.588l15.955-10.085l1.169,15.673L50,91.069z"></path></svg>