<svg height='100px' width='100px'  fill="#FF8400" xmlns="http://www.w3.org/2000/svg" viewBox="0 0 64 64" x="0px" y="0px"><title>Artboard 11</title><g data-name="Outline ComPath"><path d="M43,29a41.6992,41.6992,0,0,0-2.0513-11.3164A15.22,15.22,0,0,0,38.12,12.7469l2.8379-9.46a1,1,0,0,0-.7-1.2534A33.6152,33.6152,0,0,0,23.771,2.0264a1,1,0,0,0-.729,1.2607l2.8379,9.46a15.22,15.22,0,0,0-2.8286,4.9367,41.6522,41.6522,0,0,0-2.05,11.2729L20,52.0435a4.9842,4.9842,0,0,0,1.96,3.97L31.416,62.812a1.0011,1.0011,0,0,0,1.168,0l9.4853-6.8213A4.9854,4.9854,0,0,0,43.999,52ZM39.1529,18.6439a44.1427,44.1427,0,0,1,1.2963,5.3,2.99,2.99,0,0,1-1.2963-5.3ZM38.74,3.7188,36.2559,12H27.7441l-2.477-8.2563A31.5907,31.5907,0,0,1,38.74,3.7188ZM23.7131,23.095A2.995,2.995,0,0,1,23,29,31.887,31.887,0,0,1,23.7131,23.095ZM32,60.7686l-8.8418-6.357a2.9644,2.9644,0,0,1-1.1592-2.3247l.9145-21.0927c.0289.0005.0576.0058.0865.0058a4.9932,4.9932,0,0,0,1.1484-9.8541c.2558-1.0406.5292-2.0162.8-2.8295A13.2579,13.2579,0,0,1,27.4421,14h9.1158a13.8311,13.8311,0,0,1,1.8311,2.7555,4.9752,4.9752,0,0,0,2.3785,9.221,24.5348,24.5348,0,0,1,.2335,3.067l.9106,20.9654a4.9591,4.9591,0,0,0-4.5226,6.8845Zm8.8716-6.3794-1.7851,1.2836A2.9354,2.9354,0,0,1,39,55a3.0032,3.0032,0,0,1,2.9981-3L42,52.0435A2.9657,2.9657,0,0,1,40.8716,54.3892ZM33,30a5,5,0,1,0,5,5A5.0059,5.0059,0,0,0,33,30Zm0,8a3,3,0,1,1,3-3A3.0033,3.0033,0,0,1,33,38Zm-4,6a5,5,0,1,0,5,5A5.0059,5.0059,0,0,0,29,44Zm0,8a3,3,0,1,1,3-3A3.0033,3.0033,0,0,1,29,52Z"></path></g></svg>